<svg width="512" height="512" viewBox="0 0 512 512" xmlns="http://www.w3.org/2000/svg" role="img" aria-label="Subtitles AI">
  <path d="M100 150 C 100 130, 120 110, 140 110 L 320 110 C 340 110, 360 130, 360 150 L 360 270 C 360 290, 340 310, 320 310 L 250 310 L 230 340 L 210 310 L 140 310 C 120 310, 100 290, 100 270 Z" fill="#001F3F"/>
  <rect x="150" y="170" width="160" height="20" rx="10" fill="white"/>
  <rect x="150" y="210" width="100" height="20" rx="10" fill="#0074D9"/>
  <rect x="150" y="250" width="160" height="20" rx="10" fill="white"/>
  <g stroke="#0074D9" stroke-width="8" fill="none">
    <path d="M360 180 L 420 180"/>
    <path d="M360 230 L 400 230 L 420 210"/>
    <path d="M360 280 L 400 280 L 420 300"/>
  </g>
  <circle cx="435" cy="180" r="15" fill="#0074D9"/>
  <circle cx="435" cy="210" r="15" fill="#0074D9"/>
  <circle cx="435" cy="300" r="15" fill="#0074D9"/>
  <text x="256" y="440" font-family="Arial, sans-serif" font-size="64" font-weight="bold" text-anchor="middle">
    <tspan fill="#EAF4FF">Subtitles </tspan>
    <tspan fill="#7DDCFF">AI</tspan>
  </text>
</svg>
